<?xml version="1.0" standalone="no"?><!DOCTYPE svg PUBLIC "-//W3C//DTD SVG 1.1//EN" "http://www.w3.org/Graphics/SVG/1.1/DTD/svg11.dtd"><svg t="1681969743477" class="icon" viewBox="0 0 1134 1024" version="1.1" xmlns="http://www.w3.org/2000/svg" p-id="18706" data-spm-anchor-id="a313x.7781069.0.i21" xmlns:xlink="http://www.w3.org/1999/xlink" width="221.484375" height="200"><path d="M654.03871 325.013825c0 102.626507-83.227134 185.806452-185.924424 185.806451-102.69729 0-185.924424-83.179945-185.924424-185.806451S365.416995 139.207373 468.114286 139.207373c102.69729 0 185.924424 83.179945 185.924424 185.806452z m-47.047374 243.435945l0.181678 0.028313-0.051908 0.259539c-0.368074 1.840369-0.743226 3.996903-0.743226 6.339834 0 139.573088 64.478968 248.600774 143.013161 313.955097A67.031889 67.031889 0 0 1 730.248848 891.870968H205.979724C169.113364 891.870968 139.207373 861.979134 139.207373 825.143447v-61.921327c0-107.836166 87.547281-195.331539 195.45659-195.331539h23.84929c33.548977 15.183041 70.530949 23.813899 109.601033 23.813898 39.065364 0 76.191263-8.628498 109.603391-23.813898h23.846931c1.543078 0 3.090876 0.205272 4.933604 0.486046l0.493124 0.073143z" fill="#9edafa" p-id="18707" data-spm-anchor-id="a313x.7781069.0.i15" class=""></path><path d="M327.854599 753.866912c1.028719 32.145106 29.797456 57.443097 64.25718 56.504037 27.353069-0.743226 50.065106-17.794949 57.756903-40.870341l24.573641-0.667723a1.455779 1.455779 0 0 0 0.967373-0.412903l7.335521-7.47001a1.401512 1.401512 0 0 1 0.967373-0.412903l12.84247-0.349198a1.455779 1.455779 0 0 1 0.648848 0.134488c0.202912 0.094378 0.377512 0.231226 0.507281 0.403466l5.134157 6.764534a1.377917 1.377917 0 0 0 0.507281 0.403466c0.200553 0.094378 0.4247 0.139207 0.648848 0.134488l13.628166-0.372792a1.420387 1.420387 0 0 0 0.906027-0.353917l7.880553-7.045309a1.413309 1.413309 0 0 1 0.995687-0.351558 1.392074 1.392074 0 0 1 0.965014 0.419982l6.195907 6.420055a1.375558 1.375558 0 0 0 1.054673 0.419982l11.858581-0.320885a1.439263 1.439263 0 0 0 0.953217-0.401106 1.224553 1.224553 0 0 0 0.372792-0.910747l-0.176958-5.488073a1.19388 1.19388 0 0 1 0.370433-0.910747 1.354323 1.354323 0 0 1 0.434138-0.287852 1.462857 1.462857 0 0 1 0.521438-0.110894l4.482949-0.122692a1.418028 1.418028 0 0 0 0.931982-0.377511l13.13976-12.410691a1.222194 1.222194 0 0 0 0.394028-0.931982l-0.125051-3.909604a1.248147 1.248147 0 0 0-0.483687-0.934341L554.437014 729.069124a1.434544 1.434544 0 0 0-0.924903-0.302009l-104.856185 2.854931c-9.157014-22.6153-32.919005-38.4-60.269714-37.654415-34.459724 0.9367-61.562691 27.756535-60.531613 59.899281z m26.534341-13.932534c7.814488-0.21471 14.340719 5.523465 14.574304 12.814157 0.233585 7.290691-5.912774 13.373346-13.729622 13.585695-7.814488 0.21235-14.340719-5.525825-14.574304-12.814156-0.233585-7.290691 5.915134-13.373346 13.729622-13.585696z" fill="#21affa" p-id="18708" data-spm-anchor-id="a313x.7781069.0.i8" class=""></path><path d="M845.861751 488.40553c-15.930986 0-42.552627 6.118046-67.605235 12.92977-25.628313 6.927336-51.464258 15.124055-66.656737 20.088331a35.547429 35.547429 0 0 0-24.104111 29.136811c-13.760295 103.369733 18.170101 179.978618 56.914581 230.65718a271.933346 271.933346 0 0 0 58.11318 56.638525c8.913991 6.302083 17.179134 11.127152 24.198488 14.430378 6.464885 3.046046 13.413456 5.539982 19.139834 5.539982 5.726378 0 12.653714-2.493935 19.139834-5.539982a165.137696 165.137696 0 0 0 24.198489-14.430378 271.879078 271.879078 0 0 0 58.113179-56.638525c38.744479-50.678562 70.674876-127.287447 56.914581-230.65718a35.580461 35.580461 0 0 0-24.10411-29.160405 1441.180903 1441.180903 0 0 0-66.656738-20.088332c-25.052608-6.764535-51.674249-12.906175-67.605235-12.906175z m0 115.445382a34.624885 34.624885 0 0 1 29.91071 52.179171 34.634323 34.634323 0 0 1-18.365936 15.124055l8.888037 45.945512a11.556571 11.556571 0 0 1-2.43023 9.541603 11.525899 11.525899 0 0 1-8.904553 4.197457h-18.196055a11.537696 11.537696 0 0 1-11.167263-8.701641 11.596682 11.596682 0 0 1-0.146286-5.037419l8.866802-45.945512a34.634323 34.634323 0 0 1 11.544774-67.303226z" fill="#168fcf" p-id="18709" data-spm-anchor-id="a313x.7781069.0.i20" class=""></path></svg>